# xmcd
#
# Track frame offsets:
# 150
# 14910
# 39610
# 50796
# 85820
# 105798
# 126556
# 161243
# 179770
# 202824
#
# Disc length: 3397 seconds
#
#
# Revision: 1
# Processed by: cddbd v1.5.2PL0 Copyright (c) Steve Scherf et al.
# Submitted via: FreeRIP 2.96 
#
DISCID=8e0d430a
DTITLE=John Lee Hooker and Canned Heat - The Best Of Hooker 'N Heat
DYEAR=1996
DGENRE=Blues
TTITLE0=You Talk Too Much
TTITLE1=Burning Hell
TTITLE2=Bottle Up And Go
TTITLE3=The World Today
TTITLE4=I Got My Eyes On You
TTITLE5=Whiskey And Wimmen'
TTITLE6=Just You And Me
TTITLE7=Let's Make It
TTITLE8=Peavine
TTITLE9=Boogie Chillen No. 2
EXTD=
EXTT0=
EXTT1=
EXTT2=
EXTT3=
EXTT4=
EXTT5=
EXTT6=
EXTT7=
EXTT8=
EXTT9=
PLAYORDER=
